<svg width="73" height="38" viewBox="0 0 73 38" fill="none" xmlns="http://www.w3.org/2000/svg">
<path d="M0.500325 13.219C4.26336 13.219 8.0264 13.219 11.9035 13.219C11.9035 21.0345 11.9035 28.8501 11.9035 36.9024C8.14043 36.9024 4.37739 36.9024 0.500325 36.9024C0.500325 29.0869 0.500325 21.2714 0.500325 13.219Z" fill="white"/>
<path d="M31.8955 3.24125C34.0563 4.99409 35.7939 7.26618 36.4641 10.0027C36.4641 10.7746 36.4641 11.5465 36.4641 12.3418C28.6485 12.3418 20.833 12.3418 12.7806 12.3418C13.1593 9.31246 13.6996 7.33896 15.7045 5.03213C15.9403 4.76019 15.9403 4.76019 16.1808 4.48276C20.3871 -0.0358736 26.9512 -0.242271 31.8955 3.24125Z" fill="white"/>
<path d="M12.7806 25.4993C16.5437 25.4993 20.3067 25.4993 24.1838 25.4993C24.1838 29.3588 24.1838 33.2184 24.1838 37.1948C20.4207 37.1948 16.6577 37.1948 12.7806 37.1948C12.7806 33.3353 12.7806 29.4758 12.7806 25.4993Z" fill="white"/>
<path d="M25.3533 25.7917C29.0199 25.7917 32.6864 25.7917 36.4641 25.7917C36.4641 29.4583 36.4641 33.1248 36.4641 36.9025C32.7975 36.9025 29.131 36.9025 25.3533 36.9025C25.3533 33.2359 25.3533 29.5694 25.3533 25.7917Z" fill="white"/>
<path d="M36.7565 13.219C36.7565 16.982 36.7565 20.7451 36.7565 24.6221C32.9934 24.6221 29.2304 24.6221 25.3533 24.6221C25.3533 21.1719 26.4512 18.9464 28.7969 16.4718C31.0282 14.3546 33.7011 13.219 36.7565 13.219Z" fill="white"/>
<path d="M12.7806 13.219C16.5752 13.6933 19.3183 14.7823 21.8664 17.719C23.5072 19.9068 24.1838 21.8944 24.1838 24.6221C20.4207 24.6221 16.6577 24.6221 12.7806 24.6221C12.7806 20.8591 12.7806 17.0961 12.7806 13.219Z" fill="white"/>
<circle cx="6.23556" cy="6.09067" r="5.76457" fill="white"/>
<path d="M43.5655 12.8643C43.1032 12.8643 42.674 12.7955 42.2777 12.6579C41.8815 12.5203 41.5238 12.3387 41.2046 12.113C40.8909 11.8819 40.6157 11.6343 40.3791 11.3701L41.2046 10.0575C41.2761 10.2447 41.3944 10.4235 41.5595 10.5941C41.7301 10.7647 41.9283 10.9161 42.1539 11.0482C42.3795 11.1802 42.6162 11.2848 42.8638 11.3618C43.117 11.4389 43.3646 11.4774 43.6068 11.4774C43.97 11.4774 44.2589 11.4196 44.4736 11.3041C44.6882 11.183 44.7955 11.0234 44.7955 10.8253C44.7955 10.6712 44.746 10.5446 44.6469 10.4455C44.5534 10.341 44.4433 10.2584 44.3167 10.1979C44.1956 10.1318 44.0911 10.0741 44.003 10.0245C43.937 9.99151 43.8159 9.94198 43.6398 9.87594C43.4692 9.80439 43.2766 9.72735 43.0619 9.6448C42.8473 9.56225 42.6437 9.4852 42.4511 9.41366C42.2585 9.33661 42.1071 9.27332 41.997 9.22379C41.177 8.85507 40.767 8.28547 40.767 7.515C40.767 7.26735 40.8138 7.0252 40.9074 6.78856C41.0064 6.54641 41.155 6.32628 41.3532 6.12816C41.5513 5.93004 41.8044 5.77319 42.1126 5.65762C42.4208 5.54205 42.7895 5.48427 43.2188 5.48427C43.6866 5.48427 44.1021 5.53655 44.4653 5.64111C44.8285 5.74017 45.1477 5.86675 45.4229 6.02084C45.7035 6.17494 45.9429 6.33729 46.1411 6.50789L45.3816 7.77916C44.7707 7.1738 44.0801 6.87111 43.3096 6.87111C42.9849 6.87111 42.7372 6.90688 42.5666 6.97843C42.4015 7.04447 42.2887 7.12151 42.2282 7.20957C42.1732 7.29212 42.1456 7.36091 42.1456 7.41594C42.1456 7.5095 42.1787 7.60306 42.2447 7.69661C42.3162 7.79017 42.4731 7.88923 42.7152 7.99379C42.8143 8.03782 42.9464 8.09285 43.1115 8.15889C43.2821 8.21943 43.4692 8.28822 43.6728 8.36527C43.8819 8.44232 44.0856 8.52487 44.2837 8.61292C44.4873 8.69547 44.6717 8.78077 44.8368 8.86883C45.0349 8.97889 45.2385 9.11372 45.4476 9.27332C45.6568 9.43292 45.8329 9.63104 45.976 9.86768C46.1246 10.0988 46.1989 10.3822 46.1989 10.7179C46.1989 10.9216 46.1603 11.1472 46.0833 11.3949C46.0062 11.637 45.8714 11.8709 45.6788 12.0965C45.4862 12.3222 45.2193 12.5065 44.878 12.6496C44.5368 12.7927 44.0993 12.8643 43.5655 12.8643Z" fill="white"/>
<path d="M46.9506 12.8477C46.9451 12.7652 46.9396 12.6276 46.9341 12.435C46.9286 12.2479 46.9231 12.0222 46.9176 11.7581C46.912 11.4939 46.9093 11.2105 46.9093 10.9078C46.9093 10.5996 46.9093 10.2914 46.9093 9.98325C46.9093 9.64205 46.9093 9.31735 46.9093 9.00916C46.9148 8.70097 46.9176 8.43406 46.9176 8.20842C46.9231 7.98279 46.9258 7.82044 46.9258 7.72138L48.3209 7.69661C48.3099 7.85071 48.3016 8.03782 48.2961 8.25795C48.4392 8.06534 48.6043 7.914 48.7914 7.80393C48.9786 7.69386 49.1932 7.63883 49.4353 7.63883C49.727 7.63883 49.9664 7.72413 50.1535 7.89473C50.3461 8.06534 50.503 8.28822 50.6241 8.56339C51.0203 7.94702 51.5073 7.63883 52.0852 7.63883C52.4099 7.63883 52.6768 7.71037 52.8859 7.85346C53.1006 7.99104 53.2684 8.17816 53.3895 8.4148C53.5106 8.65144 53.5986 8.91836 53.6536 9.21554C53.7142 9.51272 53.7527 9.81815 53.7692 10.1318C53.7857 10.4455 53.794 10.7482 53.794 11.0399C53.794 11.3866 53.7885 11.703 53.7775 11.9892C53.7665 12.2754 53.7637 12.5478 53.7692 12.8065H52.3411C52.3411 12.6744 52.3411 12.5065 52.3411 12.3029C52.3411 12.1048 52.3411 11.9039 52.3411 11.7003C52.3466 11.4912 52.3494 11.3123 52.3494 11.1637C52.3494 11.0096 52.3494 10.9188 52.3494 10.8913C52.3494 10.5611 52.3411 10.2502 52.3246 9.95849C52.3081 9.66681 52.2668 9.43017 52.2008 9.24856C52.1347 9.06695 52.0274 8.97614 51.8788 8.97614C51.7357 8.97614 51.6092 9.04493 51.4991 9.18252C51.389 9.3201 51.29 9.49896 51.2019 9.71909C51.1194 9.93923 51.0478 10.1731 50.9873 10.4208C50.9983 10.6354 51.0065 10.85 51.012 11.0647C51.0175 11.2738 51.0203 11.4774 51.0203 11.6755C51.0203 11.9012 51.0175 12.0965 51.012 12.2616C51.012 12.4322 51.012 12.6139 51.012 12.8065H49.6252C49.6252 12.3607 49.6224 11.9672 49.6169 11.626C49.6114 11.2848 49.6004 10.9546 49.5839 10.6354C49.5564 10.0631 49.4959 9.6448 49.4023 9.38064C49.3143 9.11097 49.1904 8.97614 49.0308 8.97614C48.8547 8.97614 48.7061 9.08346 48.5851 9.29809C48.464 9.50721 48.3649 9.76312 48.2879 10.0658C48.2934 10.5061 48.3044 10.9656 48.3209 11.4444C48.3374 11.9232 48.3594 12.3855 48.3869 12.8312L46.9506 12.8477Z" fill="white"/>
<path d="M56.5843 12.856C56.1716 12.856 55.7973 12.7487 55.4616 12.5341C55.1259 12.3249 54.859 12.0415 54.6609 11.6838C54.4683 11.3206 54.372 10.9161 54.372 10.4703C54.372 10.052 54.449 9.67507 54.6031 9.33936C54.7572 8.99815 54.9663 8.70648 55.2305 8.46433C55.5001 8.22218 55.8056 8.03782 56.1468 7.91124C56.488 7.77916 56.8457 7.71312 57.2199 7.71312C57.5336 7.71312 57.8418 7.75715 58.1445 7.8452C58.1665 7.72963 58.1858 7.61406 58.2023 7.49849L59.6139 7.73789C59.5754 7.84245 59.5369 7.9993 59.4983 8.20842C59.4598 8.41755 59.4268 8.65144 59.3993 8.9101C59.3773 9.16876 59.358 9.42742 59.3415 9.68607C59.325 9.94473 59.3167 10.1786 59.3167 10.3877C59.3167 10.5584 59.3277 10.7262 59.3497 10.8913C59.3773 11.0509 59.4323 11.183 59.5148 11.2875C59.5974 11.3866 59.724 11.4361 59.8946 11.4361H60.0101L59.8038 12.8725C59.4405 12.8725 59.1406 12.8092 58.904 12.6826C58.6673 12.5616 58.4775 12.3965 58.3344 12.1873C58.0977 12.4515 57.8281 12.6276 57.5254 12.7157C57.2227 12.8092 56.909 12.856 56.5843 12.856ZM55.7258 10.6354C55.7533 10.8996 55.8606 11.1114 56.0477 11.271C56.2403 11.4251 56.4825 11.5022 56.7742 11.5022C57.0548 11.5022 57.2887 11.4279 57.4758 11.2793C57.663 11.1252 57.8171 10.9161 57.9381 10.6519C57.9326 10.5639 57.9299 10.4731 57.9299 10.3795C57.9299 10.1869 57.9354 9.98876 57.9464 9.78513C57.9574 9.58151 57.9712 9.38064 57.9877 9.18252C57.7565 9.09446 57.5144 9.05044 57.2612 9.05044C56.964 9.05044 56.6971 9.11097 56.4605 9.23205C56.2293 9.34762 56.0477 9.50997 55.9157 9.71909C55.7836 9.92822 55.7175 10.1704 55.7175 10.4455C55.7175 10.4786 55.7175 10.5116 55.7175 10.5446C55.7175 10.5776 55.7203 10.6079 55.7258 10.6354Z" fill="white"/>
<path d="M60.4932 12.8477C60.5152 12.391 60.5317 11.9342 60.5427 11.4774C60.5537 11.0206 60.5592 10.5694 60.5592 10.1236C60.5537 9.71634 60.5455 9.3146 60.5345 8.91836C60.529 8.51661 60.5152 8.12863 60.4932 7.7544L61.88 7.71312C61.8855 7.91675 61.8938 8.12587 61.9048 8.3405C62.0809 8.12037 62.2845 7.94426 62.5157 7.81218C62.7523 7.6746 63.022 7.60581 63.3247 7.60581C63.4402 7.60581 63.5888 7.62232 63.7704 7.65534C63.952 7.68836 64.1364 7.75165 64.3235 7.8452L64.1667 9.2403C64.0291 9.15775 63.8805 9.09997 63.7209 9.06695C63.5668 9.02842 63.4375 9.00916 63.3329 9.00916C62.9807 9.00916 62.6808 9.16876 62.4331 9.48795C62.191 9.80164 62.0259 10.2392 61.9378 10.8005C61.9378 11.1857 61.9323 11.5545 61.9213 11.9067C61.9158 12.2534 61.902 12.5671 61.88 12.8477H60.4932Z" fill="white"/>
<path d="M67.1383 12.856C66.8081 12.856 66.5467 12.7845 66.3541 12.6414C66.1614 12.5038 66.0211 12.3112 65.9331 12.0635C65.845 11.8159 65.7872 11.5324 65.7597 11.2133C65.7377 10.8941 65.7267 10.5584 65.7267 10.2061C65.7267 9.84292 65.7404 9.46594 65.768 9.0752C65.3992 9.12473 65.0443 9.18802 64.7031 9.26507L64.4471 7.96903C64.9039 7.84795 65.391 7.7599 65.9083 7.70487C65.9468 7.4242 65.9881 7.12977 66.0321 6.82158C66.0761 6.50789 66.1257 6.17769 66.1807 5.83098L67.6006 5.9548C67.5345 6.24098 67.4767 6.52715 67.4272 6.81333C67.3777 7.094 67.3337 7.36641 67.2951 7.63057C67.6033 7.63057 67.8922 7.63883 68.1619 7.65534C68.4371 7.66634 68.6902 7.68836 68.9214 7.72138L68.7563 9.01742C68.5637 8.9954 68.3628 8.98164 68.1537 8.97614C67.95 8.96513 67.7437 8.95963 67.5345 8.95963C67.4079 8.95963 67.2814 8.96238 67.1548 8.96789C67.1218 9.36963 67.0998 9.71359 67.0888 9.99976C67.0833 10.2859 67.0805 10.4896 67.0805 10.6106C67.0805 10.9133 67.097 11.1307 67.13 11.2628C67.1686 11.3949 67.2291 11.4609 67.3116 11.4609C67.4052 11.4609 67.5098 11.4306 67.6253 11.3701C67.7409 11.3041 67.8537 11.216 67.9638 11.1059C68.0794 10.9959 68.1757 10.8775 68.2527 10.751L68.8883 12.08C68.3435 12.5973 67.7602 12.856 67.1383 12.856Z" fill="white"/>
<path d="M40.4286 24.9718C40.4121 24.4269 40.4038 23.9041 40.4038 23.4033C40.4038 22.5008 40.4313 21.6835 40.4864 20.9516C40.5414 20.2196 40.6212 19.5977 40.7258 19.0859C40.7753 18.8493 40.8441 18.6209 40.9321 18.4008C41.0257 18.1806 41.155 18.0018 41.3201 17.8642C41.4907 17.7211 41.7136 17.6496 41.9888 17.6496C42.2585 17.6496 42.4868 17.7211 42.674 17.8642C42.8611 18.0018 43.0124 18.1696 43.128 18.3677C43.2491 18.5659 43.3371 18.7557 43.3921 18.9373C43.5352 19.3666 43.6563 19.7959 43.7554 20.2251C43.8544 20.6544 43.9425 21.0644 44.0195 21.4551C44.0746 21.1689 44.1378 20.869 44.2094 20.5553C44.2809 20.2361 44.3525 19.9362 44.424 19.6555C44.4956 19.3694 44.5616 19.1327 44.6221 18.9456C44.9028 18.0816 45.3348 17.6496 45.9182 17.6496C46.2429 17.6496 46.518 17.7679 46.7437 18.0045C46.9693 18.2357 47.1344 18.5714 47.239 19.0116C47.2885 19.2098 47.338 19.4987 47.3876 19.8784C47.4426 20.2581 47.4921 20.7094 47.5362 21.2322C47.5857 21.7495 47.627 22.3219 47.66 22.9493C47.6985 23.5767 47.7288 24.2426 47.7508 24.947L46.2979 24.914C46.2979 24.6223 46.2897 24.2838 46.2731 23.8986C46.2621 23.5134 46.2429 23.1144 46.2154 22.7016C46.1933 22.2834 46.1658 21.8761 46.1328 21.4799C46.1053 21.0836 46.075 20.7259 46.042 20.4067C46.0145 20.0875 45.987 19.8344 45.9595 19.6473C45.9319 19.4547 45.9072 19.3583 45.8852 19.3583C45.8797 19.3583 45.8494 19.4574 45.7944 19.6555C45.7448 19.8481 45.6815 20.1068 45.6045 20.4315C45.5329 20.7562 45.4531 21.1139 45.3651 21.5047C45.277 21.8954 45.189 22.2889 45.1009 22.6851C45.0184 23.0759 44.9441 23.4391 44.878 23.7748C44.812 24.105 44.7597 24.3746 44.7212 24.5838L43.4252 24.6168C43.3591 24.3086 43.2793 23.9702 43.1858 23.6014C43.0977 23.2272 43.0042 22.8475 42.9051 22.4622C42.8115 22.0715 42.718 21.6973 42.6244 21.3396C42.5309 20.9763 42.4428 20.6516 42.3603 20.3655C42.2832 20.0793 42.2199 19.8536 42.1704 19.6885C42.1209 19.5179 42.0906 19.4326 42.0796 19.4326C42.0576 19.4326 42.0328 19.5537 42.0053 19.7959C41.9833 20.0325 41.9613 20.3545 41.9393 20.7617C41.9172 21.1689 41.898 21.6285 41.8815 22.1403C41.8705 22.6521 41.865 23.1804 41.865 23.7253C41.865 23.9839 41.865 24.2206 41.865 24.4352C41.8705 24.6498 41.876 24.8259 41.8815 24.9635L40.4286 24.9718Z" fill="white"/>
<path d="M50.3713 25.0461C50.0191 25.0461 49.7274 24.9828 49.4963 24.8562C49.2706 24.7351 49.089 24.5673 48.9514 24.3526C48.8194 24.138 48.7203 23.8986 48.6543 23.6344C48.5937 23.3648 48.5525 23.0869 48.5304 22.8007C48.5139 22.509 48.5057 22.2283 48.5057 21.9587C48.5057 21.6505 48.5139 21.3368 48.5304 21.0176C48.5525 20.6984 48.5745 20.3489 48.5965 19.9692L50.1072 19.8784C50.0906 19.994 50.0659 20.1673 50.0329 20.3985C49.9998 20.6296 49.9696 20.8938 49.942 21.191C49.9145 21.4881 49.9008 21.7991 49.9008 22.1238C49.9008 22.6576 49.9476 23.0538 50.0411 23.3125C50.1347 23.5657 50.275 23.6922 50.4621 23.6922C50.8363 23.6922 51.1115 23.4198 51.2876 22.875C51.4637 22.3302 51.5518 21.4689 51.5518 20.2912V19.9114L52.2535 19.8949L53.1037 19.8784C53.0267 20.3957 52.9689 20.8718 52.9304 21.3065C52.8918 21.7413 52.8671 22.1073 52.8561 22.4044C52.8451 22.6961 52.8396 22.8915 52.8396 22.9906C52.8396 23.2437 52.8616 23.4253 52.9056 23.5354C52.9496 23.6399 53.0267 23.6922 53.1367 23.6922C53.1918 23.6922 53.2523 23.6812 53.3184 23.6592C53.3844 23.6372 53.4614 23.5987 53.5495 23.5436L53.4917 24.9635C53.2826 24.9965 53.101 25.013 52.9469 25.013C52.6827 25.013 52.4653 24.9635 52.2947 24.8644C52.1296 24.7654 51.9976 24.6333 51.8985 24.4682C51.7279 24.6498 51.516 24.7901 51.2629 24.8892C51.0152 24.9938 50.718 25.0461 50.3713 25.0461Z" fill="white"/>
<path d="M56.6571 25.0543C56.2829 25.0543 55.9362 25.0103 55.617 24.9222C55.2978 24.8342 55.0089 24.7214 54.7502 24.5838C54.4916 24.4462 54.2604 24.3004 54.0568 24.1463L54.7997 22.9493C55.0309 23.1639 55.2538 23.329 55.4684 23.4446C55.683 23.5602 55.9059 23.6399 56.1371 23.684C56.3737 23.728 56.6296 23.75 56.9048 23.75C57.1414 23.75 57.3313 23.7197 57.4744 23.6592C57.6175 23.5932 57.689 23.5106 57.689 23.4116C57.689 23.329 57.6202 23.2657 57.4826 23.2217C57.345 23.1722 57.1689 23.1309 56.9543 23.0979C56.7397 23.0593 56.514 23.0126 56.2774 22.9575C55.9417 22.8695 55.628 22.7677 55.3363 22.6521C55.0446 22.5365 54.808 22.3797 54.6264 22.1816C54.4503 21.9834 54.3622 21.7193 54.3622 21.3891C54.3622 21.1249 54.4255 20.8938 54.5521 20.6957C54.6787 20.492 54.8465 20.3242 55.0556 20.1921C55.2703 20.0545 55.5124 19.9527 55.7821 19.8867C56.0518 19.8206 56.3297 19.7876 56.6158 19.7876C57.1111 19.7876 57.5377 19.8481 57.8954 19.9692C58.2586 20.0848 58.6053 20.2389 58.9355 20.4315L58.1843 21.5707C58.0192 21.4551 57.8293 21.3561 57.6147 21.2735C57.4056 21.1855 57.1937 21.1194 56.9791 21.0754C56.7699 21.0259 56.5746 21.0011 56.393 21.0011C56.1948 21.0011 56.038 21.0314 55.9224 21.0919C55.8124 21.1524 55.7573 21.2377 55.7573 21.3478C55.7573 21.4138 55.8261 21.4771 55.9637 21.5377C56.1068 21.5927 56.3764 21.667 56.7727 21.7606C57.0093 21.8156 57.2597 21.8734 57.5239 21.9339C57.7881 21.9889 58.0357 22.0687 58.2668 22.1733C58.5035 22.2724 58.6934 22.4182 58.8364 22.6108C58.985 22.7979 59.0593 23.0483 59.0593 23.362C59.0593 23.8904 58.8475 24.3031 58.4237 24.6003C57.9999 24.903 57.4111 25.0543 56.6571 25.0543Z" fill="white"/>
<path d="M61.3056 25.0213C61.0029 25.0213 60.7525 24.9552 60.5544 24.8232C60.3618 24.6966 60.2077 24.5205 60.0921 24.2948C59.982 24.0692 59.8995 23.8106 59.8445 23.5189C59.7949 23.2272 59.7619 22.9163 59.7454 22.5861C59.7344 22.2504 59.7289 21.9146 59.7289 21.5789C59.7289 21.2873 59.7371 20.9681 59.7537 20.6214C59.7702 20.2692 59.7894 19.9142 59.8114 19.5565C59.839 19.1932 59.8665 18.852 59.894 18.5328C59.927 18.2137 59.9573 17.9357 59.9848 17.6991L61.479 17.7156C61.4349 17.9963 61.3937 18.3155 61.3551 18.6732C61.3166 19.0254 61.2836 19.3831 61.2561 19.7463C61.2341 20.1096 61.2148 20.4453 61.1983 20.7534C61.1873 21.0616 61.1818 21.3065 61.1818 21.4881C61.1818 21.9889 61.19 22.3824 61.2065 22.6686C61.2286 22.9548 61.2588 23.1584 61.2973 23.2795C61.3414 23.3951 61.3992 23.4528 61.4707 23.4528C61.5643 23.4528 61.6661 23.3951 61.7761 23.2795C61.8862 23.1584 61.9935 23.0236 62.0981 22.875L62.7998 24.2701C62.6292 24.4572 62.4255 24.6278 62.1889 24.7819C61.9522 24.9415 61.6578 25.0213 61.3056 25.0213Z" fill="white"/>
<path d="M63.4842 19.0364C63.4842 18.9869 63.4815 18.9373 63.476 18.8878C63.476 18.8328 63.476 18.7722 63.476 18.7062C63.476 18.5301 63.4815 18.343 63.4925 18.1449C63.5035 17.9467 63.5145 17.7789 63.5255 17.6413L64.9949 17.6661C64.9784 17.8532 64.9591 18.0651 64.9371 18.3017C64.9206 18.5383 64.9096 18.7832 64.9041 19.0364H63.4842ZM63.4512 24.947C63.4347 24.6058 63.4237 24.2426 63.4182 23.8573C63.4127 23.4666 63.4099 23.0759 63.4099 22.6851C63.4099 22.1733 63.4154 21.6753 63.4264 21.191C63.4374 20.7067 63.4512 20.2664 63.4677 19.8702L64.8876 19.8619C64.8656 20.1151 64.8518 20.4287 64.8463 20.803C64.8408 21.1717 64.838 21.5597 64.838 21.9669C64.838 22.3687 64.8408 22.7649 64.8463 23.1557C64.8518 23.5464 64.8573 23.9014 64.8628 24.2206C64.8738 24.5342 64.8821 24.7764 64.8876 24.947H63.4512Z" fill="white"/>
<path d="M65.6856 25.013C65.6801 24.9305 65.6746 24.7929 65.6691 24.6003C65.6636 24.4132 65.6581 24.1875 65.6526 23.9234C65.6471 23.6592 65.6443 23.3758 65.6443 23.0731C65.6443 22.7649 65.6443 22.4567 65.6443 22.1485C65.6443 21.8073 65.6443 21.4826 65.6443 21.1745C65.6498 20.8663 65.6526 20.5994 65.6526 20.3737C65.6581 20.1481 65.6608 19.9857 65.6608 19.8867L67.0559 19.8619C67.0449 20.016 67.0367 20.2031 67.0312 20.4232C67.1742 20.2306 67.3393 20.0793 67.5265 19.9692C67.7136 19.8592 67.9282 19.8041 68.1704 19.8041C68.462 19.8041 68.7014 19.8894 68.8885 20.06C69.0812 20.2306 69.238 20.4535 69.3591 20.7287C69.7553 20.1123 70.2424 19.8041 70.8202 19.8041C71.1449 19.8041 71.4118 19.8757 71.621 20.0187C71.8356 20.1563 72.0034 20.3434 72.1245 20.5801C72.2456 20.8167 72.3336 21.0836 72.3887 21.3808C72.4492 21.678 72.4877 21.9834 72.5042 22.2971C72.5208 22.6108 72.529 22.9135 72.529 23.2052C72.529 23.5519 72.5235 23.8683 72.5125 24.1545C72.5015 24.4407 72.4987 24.7131 72.5042 24.9718H71.0761C71.0761 24.8397 71.0761 24.6718 71.0761 24.4682C71.0761 24.2701 71.0761 24.0692 71.0761 23.8656C71.0816 23.6565 71.0844 23.4776 71.0844 23.329C71.0844 23.1749 71.0844 23.0841 71.0844 23.0566C71.0844 22.7264 71.0761 22.4155 71.0596 22.1238C71.0431 21.8321 71.0018 21.5955 70.9358 21.4138C70.8697 21.2322 70.7624 21.1414 70.6138 21.1414C70.4708 21.1414 70.3442 21.2102 70.2341 21.3478C70.124 21.4854 70.025 21.6642 69.9369 21.8844C69.8544 22.1045 69.7828 22.3384 69.7223 22.5861C69.7333 22.8007 69.7416 23.0153 69.7471 23.23C69.7526 23.4391 69.7553 23.6427 69.7553 23.8408C69.7553 24.0665 69.7526 24.2618 69.7471 24.4269C69.7471 24.5975 69.7471 24.7791 69.7471 24.9718H68.3602C68.3602 24.526 68.3575 24.1325 68.352 23.7913C68.3465 23.4501 68.3355 23.1199 68.3189 22.8007C68.2914 22.2283 68.2309 21.8101 68.1373 21.5459C68.0493 21.2763 67.9255 21.1414 67.7659 21.1414C67.5898 21.1414 67.4412 21.2487 67.3201 21.4634C67.199 21.6725 67.1 21.9284 67.0229 22.2311C67.0284 22.6714 67.0394 23.1309 67.0559 23.6097C67.0724 24.0885 67.0945 24.5508 67.122 24.9965L65.6856 25.013Z" fill="white"/>
<path d="M43.6893 37.1948C43.0179 37.1948 42.4346 37.0462 41.9393 36.7491C41.444 36.4574 41.0615 36.0446 40.7918 35.5108C40.5221 34.977 40.3873 34.3469 40.3873 33.6204C40.3873 33.3452 40.4203 33.0398 40.4864 32.7041C40.5579 32.3629 40.6707 32.0244 40.8248 31.6887C40.9789 31.3475 41.1853 31.0366 41.444 30.7559C41.7026 30.4753 42.0191 30.2496 42.3933 30.079C42.7675 29.9029 43.2078 29.8148 43.7141 29.8148C44.1489 29.8148 44.5286 29.8699 44.8533 29.9799C45.178 30.0845 45.4587 30.2193 45.6953 30.3844C45.9319 30.544 46.1273 30.7119 46.2814 30.888C46.441 31.0641 46.5676 31.2265 46.6611 31.375C46.7547 31.5181 46.8235 31.6227 46.8675 31.6887L45.6705 32.605C45.5495 32.3794 45.4064 32.1593 45.2413 31.9446C45.0762 31.7245 44.8725 31.5429 44.6304 31.3998C44.3882 31.2567 44.0883 31.1852 43.7306 31.1852C43.3619 31.1852 43.0564 31.2677 42.8143 31.4328C42.5721 31.5979 42.3795 31.8071 42.2364 32.0602C42.0989 32.3134 42.0025 32.583 41.9475 32.8692C41.8925 33.1499 41.865 33.4113 41.865 33.6534C41.865 33.9121 41.8925 34.168 41.9475 34.4211C42.0025 34.6743 42.0961 34.9054 42.2282 35.1146C42.3658 35.3237 42.5474 35.4916 42.773 35.6181C43.0042 35.7392 43.2931 35.7997 43.6398 35.7997C44.025 35.7997 44.3387 35.7309 44.5809 35.5934C44.8285 35.4558 45.0349 35.2632 45.2 35.0155C45.3651 34.7624 45.5192 34.4679 45.6623 34.1322L47.0161 34.7431C46.774 35.2439 46.5015 35.6787 46.1989 36.0474C45.8962 36.4161 45.5412 36.6995 45.134 36.8977C44.7267 37.0958 44.2452 37.1948 43.6893 37.1948Z" fill="white"/>
<path d="M47.8135 37.104C47.8135 36.7683 47.8135 36.3391 47.8135 35.8162C47.819 35.2879 47.8246 34.7018 47.8301 34.0579C47.8411 33.414 47.8548 32.7371 47.8713 32.0272C47.8933 31.3173 47.9181 30.6073 47.9456 29.8974L49.349 29.8891C49.327 30.2028 49.305 30.5853 49.2829 31.0366C49.2609 31.4879 49.2417 31.9722 49.2252 32.4895C49.6049 32.1373 50.0396 31.9612 50.5294 31.9612C50.8652 31.9612 51.1431 32.0217 51.3632 32.1428C51.5888 32.2638 51.7705 32.4234 51.908 32.6216C52.0456 32.8142 52.1502 33.0261 52.2217 33.2572C52.2933 33.4883 52.3428 33.7167 52.3703 33.9424C52.3978 34.1625 52.4116 34.3579 52.4116 34.5285C52.4116 34.8917 52.4088 35.2522 52.4033 35.6099C52.3978 35.9676 52.3923 36.2813 52.3868 36.5509C52.3868 36.8206 52.3868 37.0105 52.3868 37.1205L50.9422 37.1288C50.9642 36.9142 50.978 36.6665 50.9835 36.3858C50.9945 36.1052 51 35.8162 51 35.5191C51.0055 35.2164 51.0082 34.9302 51.0082 34.6605C51.0082 33.769 50.7991 33.3232 50.3809 33.3232C50.2543 33.3232 50.1139 33.3563 49.9598 33.4223C49.8058 33.4883 49.6572 33.5929 49.5141 33.736C49.3765 33.8791 49.2664 34.0689 49.1839 34.3056C49.1784 34.6688 49.1756 35.021 49.1756 35.3622C49.1756 35.6759 49.1784 35.9703 49.1839 36.2455C49.1949 36.5152 49.2031 36.7876 49.2086 37.0628L47.8135 37.104Z" fill="white"/>
<path d="M53.1977 31.2017C53.1977 31.1522 53.1949 31.1026 53.1894 31.0531C53.1894 30.9981 53.1894 30.9375 53.1894 30.8715C53.1894 30.6954 53.1949 30.5083 53.2059 30.3102C53.2169 30.112 53.228 29.9442 53.239 29.8066L54.7084 29.8314C54.6918 30.0185 54.6726 30.2304 54.6506 30.467C54.6341 30.7036 54.6231 30.9485 54.6176 31.2017H53.1977ZM53.1647 37.1123C53.1482 36.7711 53.1372 36.4079 53.1316 36.0226C53.1261 35.6319 53.1234 35.2411 53.1234 34.8504C53.1234 34.3386 53.1289 33.8405 53.1399 33.3563C53.1509 32.872 53.1647 32.4317 53.1812 32.0354L54.601 32.0272C54.579 32.2803 54.5653 32.594 54.5598 32.9683C54.5543 33.337 54.5515 33.725 54.5515 34.1322C54.5515 34.534 54.5543 34.9302 54.5598 35.3209C54.5653 35.7117 54.5708 36.0666 54.5763 36.3858C54.5873 36.6995 54.5955 36.9417 54.601 37.1123H53.1647Z" fill="white"/>
<path d="M57.0088 37.1866C56.7061 37.1866 56.4557 37.1205 56.2576 36.9885C56.065 36.8619 55.9109 36.6858 55.7953 36.4601C55.6852 36.2345 55.6027 35.9758 55.5477 35.6842C55.4981 35.3925 55.4651 35.0816 55.4486 34.7513C55.4376 34.4156 55.4321 34.0799 55.4321 33.7442C55.4321 33.4526 55.4403 33.1334 55.4569 32.7867C55.4734 32.4344 55.4926 32.0795 55.5146 31.7218C55.5422 31.3585 55.5697 31.0173 55.5972 30.6981C55.6302 30.3789 55.6605 30.101 55.688 29.8644L57.1822 29.8809C57.1381 30.1616 57.0968 30.4808 57.0583 30.8385C57.0198 31.1907 56.9868 31.5484 56.9593 31.9116C56.9373 32.2748 56.918 32.6105 56.9015 32.9187C56.8905 33.2269 56.885 33.4718 56.885 33.6534C56.885 34.1542 56.8932 34.5477 56.9097 34.8339C56.9318 35.1201 56.962 35.3237 57.0005 35.4448C57.0446 35.5603 57.1024 35.6181 57.1739 35.6181C57.2675 35.6181 57.3693 35.5603 57.4793 35.4448C57.5894 35.3237 57.6967 35.1889 57.8013 35.0403L58.503 36.4354C58.3324 36.6225 58.1287 36.7931 57.8921 36.9472C57.6554 37.1068 57.361 37.1866 57.0088 37.1866Z" fill="white"/>
<path d="M61.2924 37.1866C61.0063 37.1866 60.7256 37.137 60.4504 37.038C60.1808 36.9389 59.9359 36.7848 59.7157 36.5757C59.5011 36.3721 59.3305 36.1162 59.2039 35.808C59.0773 35.4943 59.0141 35.1283 59.0141 34.7101C59.0141 34.2368 59.0856 33.8295 59.2287 33.4883C59.3773 33.1416 59.5726 32.8582 59.8148 32.6381C60.0569 32.4124 60.3266 32.2446 60.6238 32.1345C60.921 32.0244 61.2181 31.9694 61.5153 31.9694C61.6914 31.9694 61.8593 31.9832 62.0189 32.0107C62.1785 32.0327 62.3271 32.0657 62.4647 32.1097C62.4812 31.708 62.5004 31.3035 62.5224 30.8963C62.55 30.489 62.5802 30.0873 62.6132 29.691L64.0001 29.7818C63.9561 30.2386 63.9175 30.7312 63.8845 31.2595C63.8515 31.7823 63.8267 32.3161 63.8102 32.861C63.7992 33.4058 63.7937 33.9369 63.7937 34.4542C63.7937 34.9385 63.7992 35.4007 63.8102 35.841C63.8267 36.2758 63.846 36.672 63.868 37.0297L62.4399 37.137C62.4344 37.0325 62.4316 36.9307 62.4316 36.8316C62.272 36.9362 62.0959 37.0215 61.9033 37.0875C61.7162 37.1536 61.5126 37.1866 61.2924 37.1866ZM60.3431 34.6358C60.3431 34.922 60.3981 35.1476 60.5082 35.3127C60.6183 35.4723 60.7531 35.5851 60.9127 35.6511C61.0723 35.7172 61.2264 35.7502 61.375 35.7502C61.5511 35.7502 61.7272 35.7117 61.9033 35.6346C62.0794 35.5576 62.2445 35.4228 62.3986 35.2301C62.3986 35.1641 62.3986 35.1008 62.3986 35.0403C62.3986 34.5945 62.4041 34.1377 62.4151 33.6699C62.1565 33.4443 61.8758 33.3315 61.5731 33.3315C61.4465 33.3315 61.3117 33.3507 61.1686 33.3893C61.0255 33.4278 60.8907 33.4966 60.7641 33.5956C60.643 33.6892 60.5412 33.8213 60.4587 33.9919C60.3816 34.157 60.3431 34.3716 60.3431 34.6358Z" fill="white"/>
</svg>
